<svg width="10" height="6" viewBox="0 0 10 6" fill="none" xmlns="http://www.w3.org/2000/svg">
<path d="M9.4997 0.210625L0.499443 0.210625C0.40832 0.210832 0.319 0.229031 0.241098 0.263261C0.163196 0.297492 0.0996609 0.346458 0.057333 0.404891C0.0150051 0.463323 -0.00451374 0.529008 0.000878334 0.594875C0.00626945 0.660743 0.0363674 0.724298 0.0879316 0.7787L4.58806 5.4855C4.77456 5.68065 5.22358 5.68065 5.41058 5.4855L9.91071 0.7787C9.9628 0.724411 9.99335 0.660824 9.99903 0.594847C10.0047 0.52887 9.98532 0.463027 9.94295 0.40447C9.90059 0.345914 9.83687 0.296885 9.75872 0.26271C9.68058 0.228535 9.59099 0.210521 9.4997 0.210625Z" fill="#1E1E1E"/>
</svg>
