<svg width="80" height="80" viewBox="0 0 80 80" fill="none" xmlns="http://www.w3.org/2000/svg">
<ellipse cx="40.0011" cy="40" rx="40.0011" ry="40" fill="#8D0606"/>
<path d="M57.8165 22.1852C55.5129 19.8584 52.7691 18.0136 49.745 16.7582C46.721 15.5029 43.4772 14.8623 40.203 14.8737C26.484 14.8737 15.3028 26.0546 15.3028 39.7732C15.3028 44.1702 16.4586 48.4415 18.6195 52.2104L15.1018 65.1249L28.2931 61.6576C31.9364 63.6425 36.032 64.6978 40.203 64.6978C53.9219 64.6978 65.1031 53.5169 65.1031 39.7983C65.1031 33.14 62.5151 26.8837 57.8165 22.1852ZM40.203 60.4767C36.4843 60.4767 32.841 59.4717 29.6499 57.5872L28.8961 57.135L21.0567 59.1953L23.1422 51.5571L22.6397 50.7782C20.5737 47.4791 19.4766 43.6657 19.4738 39.7732C19.4738 28.3661 28.7705 19.0697 40.1778 19.0697C45.7056 19.0697 50.9068 21.2305 54.8013 25.1501C56.7297 27.0696 58.258 29.3527 59.2974 31.8672C60.3369 34.3817 60.8669 37.0775 60.8568 39.7983C60.907 51.2053 51.6103 60.4767 40.203 60.4767ZM51.5601 44.9993C50.9319 44.6978 47.8665 43.1903 47.3137 42.9641C46.7358 42.7631 46.3338 42.6626 45.9066 43.2656C45.4795 43.8938 44.2986 45.3008 43.9468 45.7028C43.595 46.13 43.2181 46.1802 42.59 45.8536C41.9618 45.5521 39.9517 44.8737 37.5898 42.7631C35.7305 41.1048 34.4993 39.0697 34.1224 38.4415C33.7706 37.8134 34.0722 37.4867 34.3988 37.1601C34.6752 36.8837 35.027 36.4315 35.3285 36.0797C35.63 35.728 35.7556 35.4516 35.9566 35.0496C36.1576 34.6224 36.0571 34.2707 35.9064 33.9692C35.7556 33.6677 34.4993 30.6023 33.9968 29.346C33.4942 28.14 32.9666 28.2908 32.5897 28.2656H31.3836C30.9565 28.2656 30.3032 28.4164 29.7253 29.0445C29.1725 29.6727 27.5644 31.1802 27.5644 34.2455C27.5644 37.3109 29.8007 40.2757 30.1022 40.6777C30.4037 41.1048 34.4993 47.3862 40.7306 50.0747C42.2131 50.728 43.3689 51.1048 44.2734 51.3812C45.7559 51.8586 47.1127 51.7832 48.1931 51.6325C49.3992 51.4566 51.8867 50.1249 52.3892 48.6676C52.9169 47.2104 52.9169 45.9792 52.741 45.7028C52.5651 45.4264 52.1882 45.3008 51.5601 44.9993Z" fill="white"/>
</svg>
